<svg width="461.4350219726562px" height="120.8px" xmlns="http://www.w3.org/2000/svg" viewBox="19.282489013671892 14.600000000000001 461.4350219726562 120.8" style="background: rgba(0, 0, 0, 0);" preserveAspectRatio="xMidYMid"><defs><filter id="editing-extrusion" x="-100%" y="-100%" width="300%" height="300%"><feFlood result="color1" flood-color="#444"></feFlood><feConvolveMatrix order="8,8" divisor="1" kernelMatrix="1 0 0 0 0 0 0 0 0 1 0 0 0 0 0 0 0 0 1 0 0 0 0 0 0 0 0 1 0 0 0 0 0 0 0 0 1 0 0 0 0 0 0 0 0 1 0 0 0 0 0 0 0 0 1 0 0 0 0 0 0 0 0 1" in="SourceAlpha" result="extrude"></feConvolveMatrix><feComposite in="color1" in2="extrude" result="comp-extrude" operator="in"></feComposite><feOffset dx="4" dy="4" in="comp-extrude" result="offset-extrude"></feOffset><feMerge><feMergeNode in="offset-extrude"></feMergeNode><feMergeNode in="SourceGraphic"></feMergeNode></feMerge></filter></defs><g filter="url(#editing-extrusion)"><g transform="translate(88.62503266334534, 99)"><path d="M14.14 0L0.51 0L7.81-38.91L8.51-42.24L22.21-42.24L14.14 0ZM40.13-3.78L40.13-3.78L40.13-3.78Q38.40 1.28 31.74 1.28L31.74 1.28L31.74 1.28Q26.82 1.28 23.42-4.61L23.42-4.61L23.42-4.61Q19.97-10.50 19.33-20.10L19.33-20.10L19.33-20.10Q26.37-32.96 31.23-38.27L31.23-38.27L31.23-38.27Q35.90-43.33 40.77-43.33L40.77-43.33L40.77-43.33Q43.39-43.33 45.28-41.92L45.28-41.92L45.28-41.92Q47.17-40.51 47.62-38.27L47.62-38.27L47.62-38.27Q45.44-37.38 44.42-36.67L44.42-36.67L44.42-36.67Q41.86-34.75 38.40-30.46L38.40-30.46L32.58-23.49L32.58-23.49Q31.17-21.82 30.59-21.06L30.59-21.06L30.59-21.06Q31.55-15.68 34.43-10.37L34.43-10.37L34.43-10.37Q37.18-5.31 40.13-3.78ZM46.56-1.92L46.56-1.92L46.56-1.92Q45.06-3.58 44.38-6.21L44.38-6.21L44.38-6.21Q43.71-8.83 43.71-13.12L43.71-13.12L43.71-13.12Q43.71-17.41 45.18-21.31L45.18-21.31L45.18-21.31Q46.66-25.22 49.34-28.03L49.34-28.03L49.34-28.03Q54.85-33.92 63.94-33.92L63.94-33.92L63.94-33.92Q67.20-33.92 69.57-32.83L69.57-32.83L80.51-33.92L75.78-8.96L75.78-8.96Q75.58-8.19 75.58-6.78L75.58-6.78L75.58-6.78Q75.58-5.38 76.45-4.48L76.45-4.48L76.45-4.48Q77.31-3.58 78.59-3.46L78.59-3.46L78.59-3.46Q77.95-1.28 75.62 0L75.62 0L75.62 0Q73.28 1.28 70.66 1.28L70.66 1.28L70.66 1.28Q68.03 1.28 66.27 0.29L66.27 0.29L66.27 0.29Q64.51-0.70 64-2.37L64-2.37L64-2.37Q62.98-0.77 60.80 0.26L60.80 0.26L60.80 0.26Q58.62 1.28 55.71 1.28L55.71 1.28L55.71 1.28Q52.80 1.28 50.43 0.51L50.43 0.51L50.43 0.51Q48.06-0.26 46.56-1.92ZM60.06-27.90L60.06-27.90L60.06-27.90Q59.33-26.75 58.69-24.80L58.69-24.80L58.69-24.80Q58.05-22.85 56.99-17.63L56.99-17.63L56.99-17.63Q55.94-12.42 55.94-8.70L55.94-8.70L55.94-8.70Q55.94-4.99 56.51-3.90L56.51-3.90L56.51-3.90Q57.09-2.82 58.11-2.82L58.11-2.82L58.11-2.82Q60.16-2.82 61.66-4.77L61.66-4.77L61.66-4.77Q63.17-6.72 63.74-10.18L63.74-10.18L67.14-28.93L67.14-28.93Q65.79-30.08 64.22-30.08L64.22-30.08L64.22-30.08Q62.66-30.08 61.73-29.57L61.73-29.57L61.73-29.57Q60.80-29.06 60.06-27.90ZM104-17.98L104-17.98L104-17.98Q106.30-22.08 106.30-26.24L106.30-26.24L106.30-26.24Q106.30-28.99 104.32-28.99L104.32-28.99L104.32-28.99Q102.78-28.99 101.18-26.37L101.18-26.37L101.18-26.37Q99.52-23.74 99.01-20.35L99.01-20.35L95.68 0L82.43 1.28L88.96-32.64L99.52-33.92L98.37-27.46L98.37-27.46Q101.50-33.92 108.54-33.92L108.54-33.92L108.54-33.92Q112.26-33.92 114.27-32L114.27-32L114.27-32Q116.29-30.08 116.29-26.14L116.29-26.14L116.29-26.14Q116.29-22.21 113.70-19.71L113.70-19.71L113.70-19.71Q111.10-17.22 106.69-17.22L106.69-17.22L106.69-17.22Q104.77-17.22 104-17.98ZM118.34-6.40L118.34-6.40L118.34-6.40Q118.34-8.13 119.23-12.48L119.23-12.48L122.62-29.76L118.85-29.76L119.10-31.68L119.10-31.68Q126.78-33.98 134.21-39.62L134.21-39.62L137.28-39.62L135.74-32.64L140.74-32.64L140.16-29.76L135.23-29.76L131.97-12.48L131.97-12.48Q131.14-8.51 131.14-7.17L131.14-7.17L131.14-7.17Q131.14-4.10 133.82-3.46L133.82-3.46L133.82-3.46Q133.18-1.28 130.88 0L130.88 0L130.88 0Q128.58 1.28 125.31 1.28L125.31 1.28L125.31 1.28Q122.05 1.28 120.19-0.77L120.19-0.77L120.19-0.77Q118.34-2.82 118.34-6.40ZM172.61-7.10L172.61-7.10L172.61-7.10Q172.61-4.29 175.49-3.46L175.49-3.46L175.49-3.46Q174.78-1.09 172.03 0.19L172.03 0.19L172.03 0.19Q169.73 1.28 167.20 1.28L167.20 1.28L167.20 1.28Q164.67 1.28 163.36 0.61L163.36 0.61L163.36 0.61Q162.05-0.06 161.34-1.15L161.34-1.15L161.34-1.15Q160.19-2.82 160.19-5.95L160.19-5.95L160.19-5.95Q160.19-7.81 161.22-12.93L161.22-12.93L162.11-17.79L162.11-17.79Q163.20-23.36 163.20-25.41L163.20-25.41L163.20-25.41Q163.20-28.99 161.22-28.99L161.22-28.99L161.22-28.99Q158.72-28.99 157.12-25.34L157.12-25.34L157.12-25.34Q156.48-23.94 156.03-21.82L156.03-21.82L151.68 0L138.82 1.28L147.84-44.80L160.70-46.08L160.19-43.52L160.19-43.52Q158.40-33.66 156.86-30.34L156.86-30.34L156.86-30.34Q160.45-33.92 167.04-33.92L167.04-33.92L167.04-33.92Q174.02-33.92 175.30-29.31L175.30-29.31L175.30-29.31Q175.74-27.84 175.74-26.56L175.74-26.56L175.74-26.56Q175.74-25.28 175.65-24.29L175.65-24.29L175.65-24.29Q175.55-23.30 175.23-21.50L175.23-21.50L174.40-16.90L172.93-9.66L172.93-9.66Q172.61-8.19 172.61-7.10ZM196.03-3.52L196.03-3.52L196.03-3.52Q194.05 1.28 187.71 1.28L187.71 1.28L187.71 1.28Q184.45 1.28 182.40-0.96L182.40-0.96L182.40-0.96Q180.67-2.94 180.67-4.93L180.67-4.93L180.67-4.93Q180.67-10.11 183.04-20.22L183.04-20.22L185.41-32.64L198.40-33.92L194.50-13.70L194.50-13.70Q193.41-8.96 193.41-7.30L193.41-7.30L193.41-7.30Q193.41-3.65 196.03-3.52ZM186.56-41.54L186.56-41.54L186.56-41.54Q186.56-44.03 188.64-45.38L188.64-45.38L188.64-45.38Q190.72-46.72 193.73-46.72L193.73-46.72L193.73-46.72Q196.74-46.72 198.56-45.38L198.56-45.38L198.56-45.38Q200.38-44.03 200.38-41.54L200.38-41.54L200.38-41.54Q200.38-39.04 198.37-37.76L198.37-37.76L198.37-37.76Q196.35-36.48 193.34-36.48L193.34-36.48L193.34-36.48Q190.34-36.48 188.45-37.76L188.45-37.76L188.45-37.76Q186.56-39.04 186.56-41.54ZM217.98-30.34L217.98-30.34L217.98-30.34Q221.44-33.92 228.74-33.92L228.74-33.92L228.74-33.92Q232.77-33.92 234.98-31.78L234.98-31.78L234.98-31.78Q237.18-29.63 237.18-25.70L237.18-25.70L237.18-25.70Q237.18-21.76 234.98-18.98L234.98-18.98L234.98-18.98Q232.77-16.19 228.67-15.04L228.67-15.04L228.67-15.04Q228.99-13.76 229.44-12.42L229.44-12.42L230.34-9.86L230.34-9.86Q231.55-6.59 232.51-5.44L232.51-5.44L232.51-5.44Q233.47-4.29 234.75-3.90L234.75-3.90L234.75-3.90Q234.05-1.28 231.49 0.13L231.49 0.13L231.49 0.13Q229.44 1.28 226.62 1.28L226.62 1.28L226.62 1.28Q218.37 1.28 217.28-11.46L217.28-11.46L217.28-11.46Q217.09-13.25 217.09-15.04L217.09-15.04L217.09-15.04Q220.29-15.94 222.53-18.94L222.53-18.94L222.53-18.94Q224.77-21.95 224.77-25.47L224.77-25.47L224.77-25.47Q224.77-28.99 222.27-28.99L222.27-28.99L222.27-28.99Q220.48-28.99 219.07-27.01L219.07-27.01L219.07-27.01Q217.66-25.02 217.02-21.63L217.02-21.63L212.80 0L199.87 1.28L208.83-44.80L221.70-46.08L220.22-38.46L220.22-38.46Q219.26-33.09 217.98-30.34ZM281.66-26.56L281.66-26.56L281.66-26.56Q281.66 0.70 252.10 0.70L252.10 0.70L252.10 0.70Q247.36 0.70 239.55-0.45L239.55-0.45L246.72-38.27L246.72-38.27Q247.23-40.83 247.55-42.30L247.55-42.30L247.55-42.30Q257.28-43.01 261.60-43.01L261.60-43.01L261.60-43.01Q265.92-43.01 269.89-42.11L269.89-42.11L269.89-42.11Q273.86-41.22 276.48-39.23L276.48-39.23L276.48-39.23Q281.66-35.33 281.66-26.56ZM268.48-28.93L268.48-28.93L268.48-28.93Q268.48-38.46 261.63-38.46L261.63-38.46L260.99-38.46L260.99-38.46Q260.67-38.46 260.35-38.40L260.35-38.40L253.76-4.03L253.76-4.03Q254.02-3.90 254.27-3.90L254.27-3.90L254.78-3.90L254.78-3.90Q257.15-3.90 259.62-5.38L259.62-5.38L259.62-5.38Q262.08-6.85 264-9.86L264-9.86L264-9.86Q268.48-16.83 268.48-28.93ZM284.29-0.32L284.29-0.32L292.35-42.24L292.35-42.24Q299.90-42.88 304.77-42.88L304.77-42.88L304.77-42.88Q309.63-42.88 312.77-42.46L312.77-42.46L312.77-42.46Q315.90-42.05 318.02-40.96L318.02-40.96L318.02-40.96Q322.24-38.91 322.24-33.28L322.24-33.28L322.24-33.28Q322.24-30.02 319.42-27.26L319.42-27.26L319.42-27.26Q316.80-24.77 313.92-24.19L313.92-24.19L313.92-24.19Q316.99-23.68 319.17-21.38L319.17-21.38L319.17-21.38Q321.47-18.94 321.47-15.17L321.47-15.17L321.47-15.17Q321.47-7.87 316.03-3.62L316.03-3.62L316.03-3.62Q310.59 0.64 299.90 0.64L299.90 0.64L299.90 0.64Q292.54 0.64 284.29-0.32ZM301.70-20.61L298.50-4.03L298.50-4.03Q299.07-3.97 299.20-3.97L299.20-3.97L299.78-3.97L299.78-3.97Q305.02-3.97 307.26-7.42L307.26-7.42L307.26-7.42Q308.93-10.11 308.93-15.04L308.93-15.04L308.93-15.04Q308.93-17.66 307.23-19.07L307.23-19.07L307.23-19.07Q305.54-20.48 301.70-20.61L301.70-20.61ZM311.42-33.22L311.42-33.22L311.42-33.22Q311.42-38.53 306.30-38.53L306.30-38.53L305.73-38.53L305.73-38.53Q305.47-38.53 305.09-38.46L305.09-38.46L302.53-24.96L303.17-24.96L303.17-24.96Q311.42-25.15 311.42-33.22Z" fill="#ccc"></path></g></g><style>text {
  font-size: 64px;
  font-family: Arial Black;
  dominant-baseline: central;
  text-anchor: middle;
}</style></svg>